<svg width="248" height="152" viewBox="0 0 248 152" fill="none" xmlns="http://www.w3.org/2000/svg">
<g clip-path="url(#clip0)">
<path d="M113.178 30.7181C112.908 29.8419 112.249 29.1731 111.417 28.9403C108.556 28.1322 106.16 26.0628 104.841 23.2535C104.616 22.7794 104.374 22.3218 104.105 21.8756C102.96 19.9815 101.263 18.5537 99.2727 17.7923C97.4239 17.0852 96.1386 16.0146 94.9445 14.9674C94.8162 12.4577 94.2949 5.50536 92.3048 0.74899C92.149 0.376058 91.8197 0.106199 91.4309 0.0254964C91.0322 -0.0569054 90.625 0.0648567 90.3325 0.343777C88.3968 2.23307 84.7278 6.60802 83.016 13.5533C75.458 17.0099 73.1929 24.3808 73.1929 29.4783C73.1929 31.0613 73.5214 32.5598 73.9937 33.9986C70.2186 35.7599 66.6082 39.509 63.2096 45.5147L45.7489 66.5187L45.7582 66.5229C39.1375 72.5748 34.7087 83.4063 34.7087 95.8036C34.7087 98.3915 34.9381 100.749 35.2986 102.962C35.2216 103.071 35.1032 103.136 35.0335 103.255C29.3288 112.69 29.9688 111.65 28.6286 114.527C25.9555 121.674 27.4463 129.251 31.6253 133.595C37.3312 139.527 43.4575 140.683 45.6812 140.55C50.2113 140.627 49.3649 140.627 73.4721 132.502C75.0684 131.964 75.9793 130.265 75.5211 128.628C75.0553 126.936 73.2929 125.947 71.601 126.42C47.3072 133.229 48.0057 133.425 44.0564 132.382C43.7174 132.266 31.1502 126.606 39.5951 114.223C43.6444 120.221 49.8446 123.254 56.908 123.502V123.584H82.4766C84.4939 123.584 86.1363 122.236 86.1363 120.573C86.1363 117.933 84.7 115.431 82.2243 113.758C81.0721 112.976 79.7358 112.434 78.331 112.106C80.1385 108.96 81.3878 105.14 81.9094 100.629L88.8637 122.36C89.1152 123.093 89.8067 123.584 90.5803 123.584H102.49C104.814 123.584 106.699 122.234 106.699 120.576C106.699 117.933 105.048 115.435 102.197 113.758C100.518 112.768 98.5141 112.175 96.4133 111.921L93.399 100.738L91.9344 75.9233C97.6994 69.8519 101.286 63.0301 98.8848 50.198C97.7677 44.2597 101.895 41.5235 102.664 41.0678C103.359 40.8277 104.054 40.5618 104.75 40.3517C105.83 40.0249 106.92 39.5603 107.957 38.8563C108.585 38.4276 110.826 36.8104 112.711 33.2487C113.131 32.4496 113.439 31.5899 113.178 30.7181Z" fill="black"/>
</g>
<path d="M70.568 124.288C68.312 124.288 66.5 123.58 65.132 122.164C63.788 120.748 63.116 118.804 63.116 116.332V102.076C63.116 99.004 63.728 96.688 64.952 95.128C66.176 93.568 68.096 92.788 70.712 92.788C72.992 92.788 74.828 93.412 76.22 94.66C77.612 95.908 78.308 97.708 78.308 100.06V105.388H72.152V100.816C72.152 99.928 72.044 99.316 71.828 98.98C71.612 98.644 71.24 98.476 70.712 98.476C70.16 98.476 69.776 98.668 69.56 99.052C69.368 99.436 69.272 100 69.272 100.744V116.26C69.272 117.076 69.392 117.676 69.632 118.06C69.872 118.42 70.232 118.6 70.712 118.6C71.672 118.6 72.152 117.82 72.152 116.26V110.68H78.38V116.512C78.38 121.696 75.776 124.288 70.568 124.288ZM79.5908 124L82.5788 93.076H93.0548L96.0068 124H90.1388L89.7068 118.996H85.9628L85.6028 124H79.5908ZM86.4308 114.064H89.2388L87.8708 98.332H87.5828L86.4308 114.064ZM100.555 124V99.016H96.8834V93.076H110.419V99.016H106.747V124H100.555Z" fill="white"/>
<path d="M111.769 124V118.744H118.069V124H111.769ZM126.371 96.8594V124H122.275V96.8594H126.371ZM132.137 106.879H136.092V108.461C136.854 107.664 137.504 107.125 138.043 106.844C138.617 106.551 139.338 106.404 140.205 106.404C142.139 106.404 143.668 107.248 144.793 108.936C146.035 107.248 147.717 106.404 149.838 106.404C153.693 106.404 155.621 108.742 155.621 113.418V124H151.648V114.49C151.648 112.85 151.449 111.689 151.051 111.01C150.641 110.318 149.967 109.973 149.029 109.973C147.939 109.973 147.143 110.383 146.639 111.203C146.146 112.023 145.9 113.342 145.9 115.158V124H141.928V114.543C141.928 111.496 141.049 109.973 139.291 109.973C138.178 109.973 137.363 110.389 136.848 111.221C136.344 112.053 136.092 113.365 136.092 115.158V124H132.137V106.879ZM173.234 106.879H177.207V124H173.234V122.207C171.605 123.73 169.854 124.492 167.979 124.492C165.611 124.492 163.654 123.637 162.107 121.926C160.572 120.18 159.805 118 159.805 115.387C159.805 112.82 160.572 110.682 162.107 108.971C163.643 107.26 165.564 106.404 167.873 106.404C169.865 106.404 171.652 107.225 173.234 108.865V106.879ZM163.848 115.387C163.848 117.027 164.287 118.363 165.166 119.395C166.068 120.438 167.205 120.959 168.576 120.959C170.041 120.959 171.225 120.455 172.127 119.447C173.029 118.404 173.48 117.08 173.48 115.475C173.48 113.869 173.029 112.545 172.127 111.502C171.225 110.482 170.053 109.973 168.611 109.973C167.252 109.973 166.115 110.488 165.201 111.52C164.299 112.562 163.848 113.852 163.848 115.387ZM198.758 123.596C198.758 124.404 198.729 125.113 198.67 125.723C198.623 126.344 198.553 126.889 198.459 127.357C198.178 128.646 197.627 129.754 196.807 130.68C195.26 132.461 193.133 133.352 190.426 133.352C188.141 133.352 186.26 132.736 184.783 131.506C183.26 130.24 182.381 128.488 182.146 126.25H186.119C186.271 127.094 186.523 127.744 186.875 128.201C187.695 129.268 188.891 129.801 190.461 129.801C193.355 129.801 194.803 128.025 194.803 124.475V122.084C193.232 123.689 191.422 124.492 189.371 124.492C187.039 124.492 185.129 123.648 183.641 121.961C182.141 120.25 181.391 118.111 181.391 115.545C181.391 113.049 182.088 110.928 183.482 109.182C184.982 107.33 186.963 106.404 189.424 106.404C191.58 106.404 193.373 107.207 194.803 108.812V106.879H198.758V123.596ZM194.961 115.475C194.961 113.811 194.516 112.48 193.625 111.484C192.723 110.465 191.568 109.955 190.162 109.955C188.662 109.955 187.479 110.512 186.611 111.625C185.826 112.621 185.434 113.91 185.434 115.492C185.434 117.051 185.826 118.328 186.611 119.324C187.467 120.414 188.65 120.959 190.162 120.959C191.674 120.959 192.869 120.408 193.748 119.307C194.557 118.311 194.961 117.033 194.961 115.475ZM219.342 116.371H207.072C207.178 117.777 207.635 118.896 208.443 119.729C209.252 120.549 210.289 120.959 211.555 120.959C212.539 120.959 213.354 120.725 213.998 120.256C214.631 119.787 215.352 118.92 216.16 117.654L219.5 119.518C218.984 120.396 218.439 121.152 217.865 121.785C217.291 122.406 216.676 122.922 216.02 123.332C215.363 123.73 214.654 124.023 213.893 124.211C213.131 124.398 212.305 124.492 211.414 124.492C208.859 124.492 206.809 123.672 205.262 122.031C203.715 120.379 202.941 118.188 202.941 115.457C202.941 112.75 203.691 110.559 205.191 108.883C206.703 107.23 208.707 106.404 211.203 106.404C213.723 106.404 215.715 107.207 217.18 108.812C218.633 110.406 219.359 112.615 219.359 115.439L219.342 116.371ZM215.281 113.137C214.73 111.027 213.4 109.973 211.291 109.973C210.811 109.973 210.359 110.049 209.938 110.201C209.516 110.342 209.129 110.553 208.777 110.834C208.438 111.104 208.145 111.432 207.898 111.818C207.652 112.205 207.465 112.645 207.336 113.137H215.281Z" fill="black"/>
<defs>
<clipPath id="clip0">
<rect width="140.563" height="140.563" fill="white"/>
</clipPath>
</defs>
</svg>
